<svg width="600" height="400" viewBox="0 0 600 400" fill="none" xmlns="http://www.w3.org/2000/svg">
<g clip-path="url(#clip0_1013_53)">
<path d="M600.012 0H0V400.008H600.012V0Z" fill="#000066"/>
<path d="M0 0V44.7222L532.931 400.009H600.012V355.288L67.0813 0.00133336H0L0 0ZM600.012 0V44.7209L67.0813 400.008H0V355.287L532.931 0H600.012Z" fill="white"/>
<path d="M250.005 0V400.008H350.007V0H250.005ZM0 133.336V266.672H600.012V133.336H0Z" fill="white"/>
<path d="M0 160.003V240.005H600.012V160.003H0ZM270.005 0V400.008H330.007V0H270.005Z" fill="#CC0000"/>
<path d="M0 400.008L200.004 266.672H244.725L44.7209 400.008H0H0ZM0 0L200.004 133.336H155.283L0 29.8153V0L0 0ZM355.287 133.336L555.291 0H600.012L400.008 133.336H355.287ZM600.012 400.008L400.008 266.672H444.729L600.012 370.194V400.008Z" fill="#CC0000"/>
</g>
<defs>
<clipPath id="clip0_1013_53">
<rect width="600" height="400" fill="white"/>
</clipPath>
</defs>
</svg>
