<svg width="891" height="329" viewBox="0 0 891 329" fill="none" xmlns="http://www.w3.org/2000/svg">
<path d="M73.0644 178.121H52.0788V51.8022L21.8686 30.5953V178.121H0.652344V5.23926H19.5625L52.0788 28.0597V5.23926H73.0644V178.121Z" fill="white"/>
<path d="M195.897 66.5548H158.307V157.837H190.362V178.121H137.091V66.5548H130.403L123.484 46.731H137.091V5.23926H190.362V25.5241H158.307V46.731H188.748L195.897 66.5548Z" fill="white"/>
<path d="M318.038 25.5241H292.902V178.121H271.916V25.5241H246.779V5.23926H318.038V25.5241Z" fill="white"/>
<path d="M538.65 91.2187C538.65 116.267 529.503 137.589 511.207 155.185C492.911 172.781 470.772 181.578 444.791 181.578C418.962 181.578 396.861 172.781 378.49 155.185C360.118 137.589 350.932 116.267 350.932 91.2187C350.932 66.17 360.118 44.8093 378.49 27.137C396.861 9.46461 418.962 0.628418 444.791 0.628418C470.772 0.628418 492.911 9.46461 511.207 27.137C529.503 44.8093 538.65 66.17 538.65 91.2187ZM517.664 91.2187C517.664 71.0874 509.901 54.1066 494.372 40.2761C479.921 27.5211 463.393 21.1438 444.791 21.1438C423.883 21.1438 406.278 28.5201 391.981 43.2727C378.758 57.2569 372.148 73.2389 372.148 91.2187C372.148 111.196 379.836 128.1 395.209 141.931C409.66 154.839 426.189 161.294 444.791 161.294C465.699 161.294 483.303 153.84 497.601 138.934C510.976 124.95 517.664 109.045 517.664 91.2187Z" fill="white"/>
<path d="M683.16 76.9277C683.16 95.6759 676.432 111.927 662.981 125.681C649.528 139.434 633.04 146.849 613.515 147.925V178.121H592.299V5.23926H610.056C630.195 5.54661 647.415 12.6924 661.713 26.6766C676.011 40.6608 683.16 57.4113 683.16 76.9277ZM661.944 76.9277C661.944 63.0972 657.216 51.3795 647.761 41.775C638.306 32.1705 626.891 26.8302 613.515 25.7546V127.87C627.352 126.641 638.882 121.07 648.107 111.158C657.331 101.246 661.944 89.8363 661.944 76.9277Z" fill="white"/>
<path d="M756.64 178.121H735.424V5.23926H756.64V178.121Z" fill="white"/>
<path d="M889.62 178.12H868.634V66.5536H844.651V178.12H823.434V66.5536H816.516L809.598 46.7298H823.434V35.6654C823.434 26.906 826.663 19.376 833.12 13.0754C839.577 6.7748 847.34 3.62451 856.412 3.62451C865.481 3.62451 873.284 6.7748 879.819 13.0754C886.352 19.376 889.62 26.906 889.62 35.6654V178.12ZM868.634 46.7298V35.6654C868.634 27.6742 864.559 23.6789 856.412 23.6789C848.571 23.6789 844.651 27.6742 844.651 35.6654V46.7298H868.634Z" fill="white"/>
<path d="M17.9754 301.622V330.293H0.548828V255.48H29.3359C38.0063 255.48 44.8777 257.483 49.9494 261.492C55.0216 265.501 57.5575 270.981 57.5575 277.934C57.5575 281.804 56.538 285.128 54.499 287.902C52.4597 290.679 49.4526 292.938 45.4772 294.685C50.0696 295.989 53.3681 298.154 55.3728 301.184C57.3774 304.218 58.38 307.992 58.38 312.516V317.242C58.38 319.195 58.6714 321.422 59.254 323.922C59.8366 326.422 60.8475 328.204 62.2867 329.266V330.293H44.3978C43.0269 329.23 42.1273 327.347 41.699 324.641C41.2705 321.936 41.0564 319.434 41.0564 317.139V312.619C41.0564 309.055 40.1138 306.332 38.2291 304.449C36.3442 302.565 33.5854 301.622 29.9527 301.622H17.9754ZM17.9754 288.263H29.4386C32.9343 288.263 35.6075 287.466 37.458 285.874C39.3086 284.279 40.234 281.995 40.234 279.015C40.234 275.964 39.2828 273.506 37.3809 271.639C35.479 269.772 32.7974 268.841 29.3359 268.841H17.9754V288.263Z" fill="white"/>
<path d="M228.425 298.281H199.071V316.934H233.666V330.293H181.645V255.48H233.771V268.841H199.071V284.922H228.425V298.281Z" fill="white"/>
<path d="M406.382 268.841H386.644V330.293H369.218V268.841H349.631V255.48H406.382V268.841Z" fill="white"/>
<path d="M559.204 315.752H535.608L531.394 330.293H513.918L538.076 255.48H556.738L580.95 330.293H563.472L559.204 315.752ZM539.463 302.393H555.348L547.535 275.622H547.227L539.463 302.393Z" fill="white"/>
<path d="M716.344 330.293H699.023V255.48H716.344V330.293Z" fill="white"/>
<path d="M858.27 316.934H890.501V330.293H840.842V255.48H858.27V316.934Z" fill="white"/>
</svg>
