<svg width="425" height="157" viewBox="0 0 425 157" fill="none" xmlns="http://www.w3.org/2000/svg">
<path d="M35.0908 85H25.0808V24.72L10.6708 14.6V85H0.550781V2.5H9.57079L25.0808 13.39V2.5H35.0908V85Z" fill="#14499E"/>
<path d="M93.6788 31.76H75.7488V75.32H91.0387V85H65.6288V31.76H62.4388L59.1387 22.3H65.6288V2.5H91.0387V12.18H75.7488V22.3H90.2687L93.6788 31.76Z" fill="#14499E"/>
<path d="M151.939 12.18H139.949V85H129.939V12.18H117.949V2.5H151.939V12.18Z" fill="#14499E"/>
<path d="M257.171 43.5308C257.171 55.4841 252.808 65.6591 244.081 74.0558C235.354 82.4525 224.794 86.6508 212.401 86.6508C200.081 86.6508 189.539 82.4525 180.776 74.0558C172.013 65.6591 167.631 55.4841 167.631 43.5308C167.631 31.5775 172.013 21.3841 180.776 12.9508C189.539 4.51745 200.081 0.300781 212.401 0.300781C224.794 0.300781 235.354 4.51745 244.081 12.9508C252.808 21.3841 257.171 31.5775 257.171 43.5308ZM247.161 43.5308C247.161 33.9241 243.458 25.8208 236.051 19.2208C229.158 13.1341 221.274 10.0908 212.401 10.0908C202.428 10.0908 194.031 13.6108 187.211 20.6508C180.904 27.3241 177.751 34.9508 177.751 43.5308C177.751 53.0641 181.418 61.1308 188.751 67.7308C195.644 73.8908 203.528 76.9708 212.401 76.9708C222.374 76.9708 230.771 73.4141 237.591 66.3008C243.971 59.6275 247.161 52.0375 247.161 43.5308Z" fill="#14499E"/>
<path d="M326.1 36.71C326.1 45.6567 322.891 53.4117 316.475 59.975C310.058 66.5383 302.193 70.0767 292.88 70.59V85H282.76V2.5H291.23C300.836 2.64667 309.05 6.05667 315.87 12.73C322.69 19.4033 326.1 27.3967 326.1 36.71ZM315.98 36.71C315.98 30.11 313.725 24.5183 309.215 19.935C304.705 15.3517 299.26 12.8033 292.88 12.29V61.02C299.48 60.4333 304.98 57.775 309.38 53.045C313.78 48.315 315.98 42.87 315.98 36.71Z" fill="#14499E"/>
<path d="M361.149 85H351.029V2.5H361.149V85Z" fill="#14499E"/>
<path d="M424.58 85.0005H414.57V31.7605H403.13V85.0005H393.01V31.7605H389.71L386.41 22.3005H393.01V17.0205C393.01 12.8405 394.55 9.24714 397.63 6.24047C400.71 3.2338 404.413 1.73047 408.74 1.73047C413.066 1.73047 416.788 3.2338 419.905 6.24047C423.021 9.24714 424.58 12.8405 424.58 17.0205V85.0005ZM414.57 22.3005V17.0205C414.57 13.2071 412.626 11.3005 408.74 11.3005C405 11.3005 403.13 13.2071 403.13 17.0205V22.3005H414.57Z" fill="#14499E"/>
<path d="M8.81232 143.937V157.619H0.5V121.918H14.2312C18.3669 121.918 21.6445 122.874 24.0637 124.787C26.4831 126.7 27.6927 129.315 27.6927 132.633C27.6927 134.48 27.2064 136.066 26.2338 137.39C25.2611 138.715 23.8267 139.793 21.9305 140.627C24.121 141.249 25.6944 142.282 26.6506 143.728C27.6068 145.176 28.085 146.977 28.085 149.136V151.391C28.085 152.323 28.224 153.386 28.5019 154.579C28.7798 155.772 29.262 156.622 29.9485 157.129V157.619H21.4156C20.7617 157.112 20.3326 156.213 20.1283 154.922C19.9239 153.631 19.8218 152.437 19.8218 151.342V149.185C19.8218 147.484 19.3722 146.185 18.4732 145.286C17.5741 144.387 16.2582 143.937 14.5254 143.937H8.81232ZM8.81232 137.562H14.2802C15.9476 137.562 17.2227 137.182 18.1054 136.422C18.9881 135.661 19.4295 134.571 19.4295 133.149C19.4295 131.693 18.9758 130.52 18.0686 129.629C17.1614 128.738 15.8823 128.294 14.2312 128.294H8.81232V137.562Z" fill="#F77F00"/>
<path d="M109.195 142.343H95.1932V151.244H111.695V157.619H86.8809V121.918H111.745V128.294H95.1932V135.968H109.195V142.343Z" fill="#F77F00"/>
<path d="M194.08 128.294H184.665V157.619H176.353V128.294H167.01V121.918H194.08V128.294Z" fill="#F77F00"/>
<path d="M266.974 150.68H255.719L253.709 157.619H245.373L256.896 121.918H265.798L277.347 157.619H269.01L266.974 150.68ZM257.558 144.305H265.135L261.408 131.53H261.261L257.558 144.305Z" fill="#F77F00"/>
<path d="M341.93 157.619H333.668V121.918H341.93V157.619Z" fill="#F77F00"/>
<path d="M409.626 151.244H425V157.619H401.312V121.918H409.626V151.244Z" fill="#F77F00"/>
</svg>
