<?xml version="1.0" encoding="UTF-8"?>
<svg width="425px" height="214px" viewBox="0 0 425 214" version="1.1" xmlns="http://www.w3.org/2000/svg" xmlns:xlink="http://www.w3.org/1999/xlink">
    <title>logo white</title>
    <g id="Page-1" stroke="none" stroke-width="1" fill="none" fill-rule="evenodd">
        <g id="netopia-retail-logo" transform="translate(-2041.000000, -1088.000000)" fill="#FFFFFF" fill-rule="nonzero">
            <g id="Group" transform="translate(2041.550000, 1088.300000)">
                <g id="netopia">
                    <polygon id="Path" points="34.54 84.7 24.53 84.7 24.53 24.42 10.12 14.3 10.12 84.7 0 84.7 0 2.2 9.02 2.2 24.53 13.09 24.53 2.2 34.54 2.2"></polygon>
                    <polygon id="Path" points="93.13 31.46 75.2 31.46 75.2 75.02 90.49 75.02 90.49 84.7 65.08 84.7 65.08 31.46 61.89 31.46 58.59 22 65.08 22 65.08 2.2 90.49 2.2 90.49 11.88 75.2 11.88 75.2 22 89.72 22"></polygon>
                    <polygon id="Path" points="151.39 11.88 139.4 11.88 139.4 84.7 129.39 84.7 129.39 11.88 117.4 11.88 117.4 2.2 151.39 2.2"></polygon>
                    <path d="M256.62,43.23 C256.62,55.1833333 252.256667,65.3583333 243.53,73.755 C234.803333,82.1516667 224.243333,86.35 211.85,86.35 C199.53,86.35 188.988333,82.1516667 180.225,73.755 C171.461667,65.3583333 167.08,55.1833333 167.08,43.23 C167.08,31.2766667 171.461667,21.0833333 180.225,12.65 C188.988333,4.21666667 199.53,0 211.85,0 C224.243333,0 234.803333,4.21666667 243.53,12.65 C252.256667,21.0833333 256.62,31.2766667 256.62,43.23 Z M246.61,43.23 C246.61,33.6233333 242.906667,25.52 235.5,18.92 C228.606667,12.8333333 220.723333,9.79 211.85,9.79 C201.876667,9.79 193.48,13.31 186.66,20.35 C180.353333,27.0233333 177.2,34.65 177.2,43.23 C177.2,52.7633333 180.866667,60.83 188.2,67.43 C195.093333,73.59 202.976667,76.67 211.85,76.67 C221.823333,76.67 230.22,73.1133333 237.04,66 C243.42,59.3266667 246.61,51.7366667 246.61,43.23 Z" id="Shape"></path>
                    <path d="M325.55,36.41 C325.55,45.3566667 322.341667,53.1116667 315.925,59.675 C309.508333,66.2383333 301.643333,69.7766667 292.33,70.29 L292.33,84.7 L282.21,84.7 L282.21,2.2 L290.68,2.2 C300.286667,2.34666667 308.5,5.75666667 315.32,12.43 C322.14,19.1033333 325.55,27.0966667 325.55,36.41 Z M315.43,36.41 C315.43,29.81 313.175,24.2183333 308.665,19.635 C304.155,15.0516667 298.71,12.5033333 292.33,11.99 L292.33,60.72 C298.93,60.1333333 304.43,57.475 308.83,52.745 C313.23,48.015 315.43,42.57 315.43,36.41 Z" id="Shape"></path>
                    <polygon id="Path" points="360.6 84.7 350.48 84.7 350.48 2.2 360.6 2.2"></polygon>
                    <path d="M424.03,84.7 L414.02,84.7 L414.02,31.46 L402.58,31.46 L402.58,84.7 L392.46,84.7 L392.46,31.46 L389.16,31.46 L385.86,22 L392.46,22 L392.46,16.72 C392.46,12.54 394,8.94666667 397.08,5.94 C400.16,2.93333333 403.863333,1.43 408.19,1.43 C412.516667,1.43 416.238333,2.93333333 419.355,5.94 C422.471667,8.94666667 424.03,12.54 424.03,16.72 L424.03,84.7 Z M414.02,22 L414.02,16.72 C414.02,12.9066667 412.076667,11 408.19,11 C404.45,11 402.58,12.9066667 402.58,16.72 L402.58,22 L414.02,22 Z" id="Shape"></path>
                </g>
                <g id="RETAIL" transform="translate(1.233203, 121.153125)">
                    <path d="M8.27636719,21.9238281 L8.27636719,35.546875 L0,35.546875 L0,0 L13.671875,0 C17.7897135,0 21.0530599,0.952148438 23.4619141,2.85644531 C25.8707682,4.76074219 27.0751953,7.36490885 27.0751953,10.6689453 C27.0751953,12.508138 26.5909831,14.0869141 25.6225586,15.4052734 C24.6541341,16.7236328 23.2259115,17.7978516 21.3378906,18.6279297 C23.5188802,19.2464193 25.0854492,20.2758789 26.0375977,21.7163086 C26.9897461,23.1567383 27.4658203,24.9511719 27.4658203,27.0996094 L27.4658203,29.3457031 C27.4658203,30.2734375 27.6041667,31.3313802 27.8808594,32.5195312 C28.1575521,33.7076823 28.6376953,34.5540365 29.3212891,35.0585938 L29.3212891,35.546875 L20.8251953,35.546875 C20.1741536,35.0423177 19.7469076,34.1471354 19.543457,32.8613281 C19.3400065,31.5755208 19.2382812,30.3873698 19.2382812,29.296875 L19.2382812,27.1484375 C19.2382812,25.4557292 18.7906901,24.1617839 17.8955078,23.2666016 C17.0003255,22.3714193 15.6901042,21.9238281 13.9648438,21.9238281 L8.27636719,21.9238281 Z M8.27636719,15.5761719 L13.7207031,15.5761719 C15.3808594,15.5761719 16.6503906,15.1977539 17.5292969,14.440918 C18.4082031,13.684082 18.8476562,12.5976562 18.8476562,11.1816406 C18.8476562,9.73307292 18.3959961,8.56526693 17.4926758,7.67822266 C16.5893555,6.79117839 15.3157552,6.34765625 13.671875,6.34765625 L8.27636719,6.34765625 L8.27636719,15.5761719 Z" id="Shape"></path>
                    <polygon id="Path" points="108.224609 20.3369141 94.2841797 20.3369141 94.2841797 29.1992188 110.714844 29.1992188 110.714844 35.546875 86.0078125 35.546875 86.0078125 0 110.763672 0 110.763672 6.34765625 94.2841797 6.34765625 94.2841797 13.9892578 108.224609 13.9892578"></polygon>
                    <polygon id="Path" points="192.743164 6.34765625 183.368164 6.34765625 183.368164 35.546875 175.091797 35.546875 175.091797 6.34765625 165.790039 6.34765625 165.790039 0 192.743164 0"></polygon>
                    <path d="M265.323242,28.6376953 L254.117188,28.6376953 L252.115234,35.546875 L243.814453,35.546875 L255.289062,0 L264.151367,0 L275.650391,35.546875 L267.349609,35.546875 L265.323242,28.6376953 Z M255.948242,22.2900391 L263.492188,22.2900391 L259.78125,9.5703125 L259.634766,9.5703125 L255.948242,22.2900391 Z" id="Shape"></path>
                    <polygon id="Path" points="339.954102 35.546875 331.726562 35.546875 331.726562 0 339.954102 0"></polygon>
                    <polygon id="Path" points="407.358398 29.1992188 422.666016 29.1992188 422.666016 35.546875 399.082031 35.546875 399.082031 0 407.358398 0"></polygon>
                </g>
                <g id="SOLUTIONS" transform="translate(104.892687, 183.852344)">
                    <path d="M15.8815314,21.3085938 C15.8815314,20.3059896 15.5495002,19.53125 14.8854377,18.984375 C14.2213752,18.4375 13.0299689,17.8580729 11.3112189,17.2460938 C7.71746892,16.1132812 5.0547085,14.8990885 3.32293767,13.6035156 C1.59116683,12.3079427 0.725281418,10.4361979 0.725281418,7.98828125 C0.725281418,5.60546875 1.75718246,3.67838542 3.82098454,2.20703125 C5.88478663,0.735677083 8.50522933,0 11.6823127,0 C14.8333543,0 17.4147345,0.810546875 19.4264533,2.43164062 C21.438172,4.05273438 22.4114793,6.13932292 22.3463752,8.69140625 L22.3073127,8.80859375 L15.9010627,8.80859375 C15.9010627,7.67578125 15.5169481,6.75455729 14.7487189,6.04492188 C13.9804898,5.33528646 12.9192918,4.98046875 11.5651252,4.98046875 C10.2370002,4.98046875 9.1953335,5.2734375 8.44012517,5.859375 C7.68491683,6.4453125 7.30731267,7.16796875 7.30731267,8.02734375 C7.30731267,8.86067708 7.68817204,9.52799479 8.44989079,10.0292969 C9.21160954,10.530599 10.640646,11.1588542 12.7370002,11.9140625 C15.9661668,12.8776042 18.3978075,14.0625 20.031922,15.46875 C21.6660366,16.875 22.4830939,18.8085938 22.4830939,21.2695312 C22.4830939,23.7695312 21.5097866,25.7259115 19.563172,27.1386719 C17.6165575,28.5514323 15.0351773,29.2578125 11.8190314,29.2578125 C8.58986475,29.2578125 5.796896,28.4472656 3.44012517,26.8261719 C1.08335433,25.2050781 -0.0624789987,22.8710938 0.00262516801,19.8242188 L0.041687668,19.7070312 L6.46746892,19.7070312 C6.46746892,21.3476562 6.91017725,22.5195312 7.79559392,23.2226562 C8.68101058,23.9257812 10.0221564,24.2773438 11.8190314,24.2773438 C13.1862189,24.2773438 14.2050991,24.0039062 14.875672,23.4570312 C15.546245,22.9101562 15.8815314,22.1940104 15.8815314,21.3085938 Z" id="Path"></path>
                    <path d="M49.5534064,17.1875 C49.5534064,20.6901042 48.4433804,23.577474 46.2233283,25.8496094 C44.0032762,28.1217448 41.1028856,29.2578125 37.5221564,29.2578125 C33.9153856,29.2578125 30.9922085,28.1217448 28.7526252,25.8496094 C26.5130418,23.577474 25.3932502,20.6901042 25.3932502,17.1875 L25.3932502,12.0703125 C25.3932502,8.58072917 26.5097866,5.69661458 28.7428595,3.41796875 C30.9759325,1.13932292 33.8893439,0 37.4830939,0 C41.0508023,0 43.9544481,1.13932292 46.1940314,3.41796875 C48.4336148,5.69661458 49.5534064,8.58072917 49.5534064,12.0703125 L49.5534064,17.1875 Z M42.9713752,12.03125 C42.9713752,10 42.4928595,8.33333333 41.5358283,7.03125 C40.578797,5.72916667 39.2278856,5.078125 37.4830939,5.078125 C35.6992398,5.078125 34.3353075,5.72591146 33.391297,7.02148438 C32.4472866,8.31705729 31.9752814,9.98697917 31.9752814,12.03125 L31.9752814,17.1875 C31.9752814,19.2447917 32.453797,20.9244792 33.4108283,22.2265625 C34.3678595,23.5286458 35.7383023,24.1796875 37.5221564,24.1796875 C39.2539273,24.1796875 40.5950731,23.5286458 41.5455939,22.2265625 C42.4961148,20.9244792 42.9713752,19.2447917 42.9713752,17.1875 L42.9713752,12.03125 Z" id="Shape"></path>
                    <polygon id="Path" points="60.0026252 23.7695312 72.2487189 23.7695312 72.2487189 28.8476562 53.3815314 28.8476562 53.3815314 0.41015625 60.0026252 0.41015625"></polygon>
                    <path d="M98.3815314,0.41015625 L98.3815314,19.0429688 C98.3815314,22.2851562 97.3040575,24.7981771 95.1491095,26.5820312 C92.9941616,28.3658854 90.171896,29.2578125 86.6823127,29.2578125 C83.1536668,29.2578125 80.3086148,28.3658854 78.1471564,26.5820312 C75.9856981,24.7981771 74.9049689,22.2851562 74.9049689,19.0429688 L74.9049689,0.41015625 L81.5260627,0.41015625 L81.5260627,19.0429688 C81.5260627,20.7877604 81.9752814,22.0800781 82.8737189,22.9199219 C83.7721564,23.7597656 85.0416877,24.1796875 86.6823127,24.1796875 C88.3099168,24.1796875 89.563172,23.7630208 90.4420783,22.9296875 C91.3209845,22.0963542 91.7604377,20.8007812 91.7604377,19.0429688 L91.7604377,0.41015625 L98.3815314,0.41015625 Z" id="Path"></path>
                    <polygon id="Path" points="122.561219 5.48828125 115.061219 5.48828125 115.061219 28.8476562 108.440125 28.8476562 108.440125 5.48828125 100.998719 5.48828125 100.998719 0.41015625 122.561219 0.41015625"></polygon>
                    <polygon id="Path" points="132.26825 28.8476562 125.686219 28.8476562 125.686219 0.41015625 132.26825 0.41015625"></polygon>
                    <path d="M160.686219,17.1875 C160.686219,20.6901042 159.576193,23.577474 157.356141,25.8496094 C155.136089,28.1217448 152.235698,29.2578125 148.654969,29.2578125 C145.048198,29.2578125 142.125021,28.1217448 139.885438,25.8496094 C137.645854,23.577474 136.526063,20.6901042 136.526063,17.1875 L136.526063,12.0703125 C136.526063,8.58072917 137.642599,5.69661458 139.875672,3.41796875 C142.108745,1.13932292 145.022156,0 148.615906,0 C152.183615,0 155.087261,1.13932292 157.326844,3.41796875 C159.566427,5.69661458 160.686219,8.58072917 160.686219,12.0703125 L160.686219,17.1875 Z M154.104188,12.03125 C154.104188,10 153.625672,8.33333333 152.668641,7.03125 C151.71161,5.72916667 150.360698,5.078125 148.615906,5.078125 C146.832052,5.078125 145.46812,5.72591146 144.52411,7.02148438 C143.580099,8.31705729 143.108094,9.98697917 143.108094,12.03125 L143.108094,17.1875 C143.108094,19.2447917 143.58661,20.9244792 144.543641,22.2265625 C145.500672,23.5286458 146.871115,24.1796875 148.654969,24.1796875 C150.38674,24.1796875 151.727886,23.5286458 152.678406,22.2265625 C153.628927,20.9244792 154.104188,19.2447917 154.104188,17.1875 L154.104188,12.03125 Z" id="Shape"></path>
                    <polygon id="Path" points="188.244813 28.8476562 181.662781 28.8476562 171.252625 10.7226562 171.135438 10.7617188 171.135438 28.8476562 164.514344 28.8476562 164.514344 0.41015625 171.135438 0.41015625 181.545594 18.5351562 181.662781 18.4960938 181.662781 0.41015625 188.244813 0.41015625"></polygon>
                    <path d="M207.815125,21.3085938 C207.815125,20.3059896 207.483094,19.53125 206.819031,18.984375 C206.154969,18.4375 204.963563,17.8580729 203.244813,17.2460938 C199.651063,16.1132812 196.988302,14.8990885 195.256531,13.6035156 C193.524761,12.3079427 192.658875,10.4361979 192.658875,7.98828125 C192.658875,5.60546875 193.690776,3.67838542 195.754578,2.20703125 C197.81838,0.735677083 200.438823,0 203.615906,0 C206.766948,0 209.348328,0.810546875 211.360047,2.43164062 C213.371766,4.05273438 214.345073,6.13932292 214.279969,8.69140625 L214.240906,8.80859375 L207.834656,8.80859375 C207.834656,7.67578125 207.450542,6.75455729 206.682313,6.04492188 C205.914084,5.33528646 204.852886,4.98046875 203.498719,4.98046875 C202.170594,4.98046875 201.128927,5.2734375 200.373719,5.859375 C199.618511,6.4453125 199.240906,7.16796875 199.240906,8.02734375 C199.240906,8.86067708 199.621766,9.52799479 200.383485,10.0292969 C201.145203,10.530599 202.57424,11.1588542 204.670594,11.9140625 C207.899761,12.8776042 210.331401,14.0625 211.965516,15.46875 C213.59963,16.875 214.416688,18.8085938 214.416688,21.2695312 C214.416688,23.7695312 213.44338,25.7259115 211.496766,27.1386719 C209.550151,28.5514323 206.968771,29.2578125 203.752625,29.2578125 C200.523459,29.2578125 197.73049,28.4472656 195.373719,26.8261719 C193.016948,25.2050781 191.871115,22.8710938 191.936219,19.8242188 L191.975281,19.7070312 L198.401063,19.7070312 C198.401063,21.3476562 198.843771,22.5195312 199.729188,23.2226562 C200.614604,23.9257812 201.95575,24.2773438 203.752625,24.2773438 C205.119813,24.2773438 206.138693,24.0039062 206.809266,23.4570312 C207.479839,22.9101562 207.815125,22.1940104 207.815125,21.3085938 Z" id="Path"></path>
                </g>
            </g>
        </g>
    </g>
</svg>