<svg width="425" height="157" viewBox="0 0 425 157" fill="none" xmlns="http://www.w3.org/2000/svg">
<path d="M35.0898 85H25.0798V24.72L10.6698 14.6V85H0.549805V2.5H9.56981L25.0798 13.39V2.5H35.0898V85Z" fill="white"/>
<path d="M93.6796 31.76H75.7496V75.32H91.0396V85H65.6297V31.76H62.4396L59.1396 22.3H65.6297V2.5H91.0396V12.18H75.7496V22.3H90.2696L93.6796 31.76Z" fill="white"/>
<path d="M151.94 12.18H139.95V85H129.94V12.18H117.95V2.5H151.94V12.18Z" fill="white"/>
<path d="M257.17 43.5298C257.17 55.4831 252.807 65.6581 244.08 74.0548C235.353 82.4515 224.793 86.6498 212.4 86.6498C200.08 86.6498 189.538 82.4515 180.775 74.0548C172.012 65.6581 167.63 55.4831 167.63 43.5298C167.63 31.5765 172.012 21.3831 180.775 12.9498C189.538 4.51647 200.08 0.299805 212.4 0.299805C224.793 0.299805 235.353 4.51647 244.08 12.9498C252.807 21.3831 257.17 31.5765 257.17 43.5298ZM247.16 43.5298C247.16 33.9231 243.457 25.8198 236.05 19.2198C229.157 13.1331 221.273 10.0898 212.4 10.0898C202.427 10.0898 194.03 13.6098 187.21 20.6498C180.903 27.3231 177.75 34.9498 177.75 43.5298C177.75 53.0631 181.417 61.1298 188.75 67.7298C195.643 73.8898 203.527 76.9698 212.4 76.9698C222.373 76.9698 230.77 73.4131 237.59 66.2998C243.97 59.6265 247.16 52.0365 247.16 43.5298Z" fill="white"/>
<path d="M326.1 36.71C326.1 45.6567 322.891 53.4117 316.475 59.975C310.058 66.5383 302.193 70.0767 292.88 70.59V85H282.76V2.5H291.23C300.836 2.64667 309.05 6.05667 315.87 12.73C322.69 19.4033 326.1 27.3967 326.1 36.71ZM315.98 36.71C315.98 30.11 313.725 24.5183 309.215 19.935C304.705 15.3517 299.26 12.8033 292.88 12.29V61.02C299.48 60.4333 304.98 57.775 309.38 53.045C313.78 48.315 315.98 42.87 315.98 36.71Z" fill="white"/>
<path d="M361.15 85H351.03V2.5H361.15V85Z" fill="white"/>
<path d="M424.58 85H414.57V31.76H403.13V85H393.01V31.76H389.71L386.41 22.3H393.01V17.02C393.01 12.84 394.55 9.24665 397.63 6.23998C400.71 3.23331 404.413 1.72998 408.74 1.72998C413.066 1.72998 416.788 3.23331 419.905 6.23998C423.021 9.24665 424.58 12.84 424.58 17.02V85ZM414.57 22.3V17.02C414.57 13.2066 412.626 11.3 408.74 11.3C405 11.3 403.13 13.2066 403.13 17.02V22.3H414.57Z" fill="white"/>
<path d="M10.0596 143.377V157H1.7832V121.453H15.4551C19.5729 121.453 22.8363 122.405 25.2451 124.31C27.654 126.214 28.8584 128.818 28.8584 132.122C28.8584 133.961 28.3742 135.54 27.4058 136.858C26.4373 138.177 25.0091 139.251 23.1211 140.081C25.3021 140.7 26.8687 141.729 27.8208 143.169C28.7729 144.61 29.249 146.404 29.249 148.553V150.799C29.249 151.727 29.3874 152.785 29.6641 153.973C29.9408 155.161 30.4209 156.007 31.1045 156.512V157H22.6084C21.9574 156.495 21.5301 155.6 21.3267 154.314C21.1232 153.029 21.0215 151.84 21.0215 150.75V148.602C21.0215 146.909 20.5739 145.615 19.6787 144.72C18.7835 143.825 17.4733 143.377 15.748 143.377H10.0596ZM10.0596 137.029H15.5039C17.1641 137.029 18.4336 136.651 19.3125 135.894C20.1914 135.137 20.6309 134.051 20.6309 132.635C20.6309 131.186 20.1792 130.018 19.2759 129.131C18.3726 128.244 17.099 127.801 15.4551 127.801H10.0596V137.029Z" fill="white"/>
<path d="M110.008 141.79H96.0674V150.652H112.498V157H87.791V121.453H112.547V127.801H96.0674V135.442H110.008V141.79Z" fill="white"/>
<path d="M194.526 127.801H185.151V157H176.875V127.801H167.573V121.453H194.526V127.801Z" fill="white"/>
<path d="M267.106 150.091H255.9L253.898 157H245.598L257.072 121.453H265.935L277.434 157H269.133L267.106 150.091ZM257.731 143.743H265.275L261.564 131.023H261.418L257.731 143.743Z" fill="white"/>
<path d="M341.737 157H333.51V121.453H341.737V157Z" fill="white"/>
<path d="M409.142 150.652H424.449V157H400.865V121.453H409.142V150.652Z" fill="white"/>
</svg>
